<svg width="250" height="250" xmlns="http://www.w3.org/2000/svg" preserveAspectRatio="xMidYMid meet" version="1.0">
 <g id="Layer_1">
  <title>Layer 1</title>
  <g stroke="null" id="svg_1" fill="#000000" transform="translate(102.861 713.507) scale(0.08767 -0.08767)">
   <path stroke="null" id="svg_1" d="m166.52637,8059.7963c-153.73539,-11.46267 -313.57579,-52.7283 -449.55114,-116.34614c-376.84595,-175.37891 -648.79664,-507.22332 -747.58689,-913.57511c-41.62511,-170.22071 -50.50513,-327.25934 -27.75007,-508.94272c55.50014,-451.62935 332.44584,-848.23787 732.04685,-1048.26152c128.20532,-64.76411 244.75562,-102.0178 394.051,-127.23568c94.90524,-15.47461 291.37574,-14.32834 395.161,2.86567c288.04573,47.5701 543.34637,180.53711 740.37187,386.29211c187.59047,196.01172 307.47078,425.2652 359.64091,689.47983c21.09005,108.8954 25.53006,158.1849 25.53006,289.43251c-0.555,107.74913 -2.22001,140.99089 -12.76503,200.59679c-25.53006,146.72223 -62.71516,265.93403 -123.21031,389.73091c-211.45553,435.00847 -627.15158,721.57532 -1099.45778,755.96334c-87.69022,6.8776 -96.01524,6.8776 -186.48047,0zm247.53063,-243.58182c233.65559,-35.53429 437.34111,-137.55209 607.72654,-306.05339c197.5805,-194.86546 314.13079,-445.89801 337.44085,-725.58726c18.31505,-226.96094 -41.0701,-477.9935 -160.95041,-676.87089c-261.96066,-436.15474 -768.67694,-636.1784 -1249.30816,-494.04124c-321.90081,95.14019 -590.52149,347.89215 -715.95181,673.43209c-49.95013,128.38195 -73.81519,263.6415 -73.81519,412.08313c0,106.02973 8.32502,177.09831 31.63508,273.38477c97.68025,396.60852 405.70603,715.27085 791.987,819.00805c124.87532,33.24175 305.80577,43.55816 431.23609,24.64475z"/>
   <path stroke="null" id="svg_2" d="m200.38146,7370.31646c-32.19008,-15.47461 -53.83514,-41.26563 -62.71516,-75.08051c-3.88501,-14.90148 -6.10502,-103.16406 -6.10502,-247.59376l0,-224.66841l-231.43558,-1.7194l-231.99059,-1.7194l-23.86506,-16.62088c-29.97008,-21.20595 -44.95511,-46.42383 -49.39512,-83.10439c-6.66002,-57.31337 30.52508,-111.76107 84.36021,-126.08941c15.54004,-4.01194 101.01026,-6.30447 239.76061,-6.30447l215.34054,0l0,-245.30122l0,-244.72809l13.87504,-25.79102c51.06013,-93.42079 185.37047,-77.37305 210.34553,25.79102c3.88501,16.04774 6.10502,107.176 6.10502,257.33703l0,232.69228l220.89056,0c126.54032,0 228.66058,2.29253 239.2056,5.73134c51.61513,14.90148 83.80521,59.6059 83.80521,115.19987c0,39.54622 -16.65004,70.49544 -49.95013,93.99393l-24.97506,17.19401l-234.21059,1.7194l-234.21059,1.7194l-1.665,236.13108c-1.665,230.39974 -2.22001,236.70422 -13.87504,259.62956c-19.42505,37.82682 -63.27016,65.33724 -103.78526,65.33724c-9.43502,0 -29.97008,-6.30447 -45.51012,-13.75521z"/>
  </g>
 </g>
</svg>