<?xml version="1.0" standalone="no"?><!DOCTYPE svg PUBLIC "-//W3C//DTD SVG 1.1//EN" "http://www.w3.org/Graphics/SVG/1.1/DTD/svg11.dtd"><svg t="1766558220790" class="icon" viewBox="0 0 1024 1024" version="1.1" xmlns="http://www.w3.org/2000/svg" p-id="77168" xmlns:xlink="http://www.w3.org/1999/xlink" width="200" height="200"><path d="M519.41577148 881.30541992c-200.22583008 0-363.37280273-163.14697266-363.37280273-363.37280273s163.14697266-363.37280273 363.37280273-363.37280274S882.78857422 317.70678711 882.78857422 517.93261719s-163.14697266 363.37280273-363.37280274 363.37280273z m0-682.25097656c-176.49536133 0-318.87817383 143.8659668-318.87817382 318.87817383 0 176.49536133 142.3828125 318.87817383 318.87817382 318.87817383s318.87817383-142.3828125 318.87817383-318.87817383c0-175.01220703-142.3828125-318.87817383-318.87817383-318.87817383z" fill="#fccd4d" p-id="77169"></path><path d="M336.98779297 409.66235352a57.84301758 57.84301758 0 1 0 115.68603516 0 57.84301758 57.84301758 0 1 0-115.68603516 0zM587.64086914 409.66235352a57.84301758 57.84301758 0 1 0 115.68603516 0 57.84301758 57.84301758 0 1 0-115.68603516 0zM519.41577148 767.10253906c-129.03442383 0-234.33837891-100.85449219-234.3383789-225.43945312v-22.24731446h467.19360351v22.24731446c1.4831543 124.58496094-103.82080078 225.43945313-232.85522461 225.43945312zM331.05517578 565.39355469c11.86523438 88.98925781 91.95556641 158.69750977 188.3605957 158.69750976s176.49536133-69.70825195 188.36059571-158.69750976H331.05517578z" fill="#fccd4d" p-id="77170"></path></svg>