<svg width="500" height="500" xmlns="http://www.w3.org/2000/svg" preserveAspectRatio="xMidYMid meet" version="1.0">
 <metadata/>

 <g>
  <title>Layer 1</title>
  <g  fill="#07c160" id="svg_6">
   <path id="svg_2" d="m209.52647,77.55376c-26.4692,3.72057 -49.74933,22.32342 -59.95432,47.9422c-5.2088,13.07515 -5.63401,17.53983 -5.2088,54.63922l0.31891,34.01664l3.40166,9.46088c4.25208,11.58692 9.67348,20.94149 18.92175,32.31581c3.82687,4.88989 8.18525,11.26801 9.56718,14.35077c4.88989,10.31129 2.87015,21.89821 -4.88989,29.02044c-2.01974,1.80713 -15.41379,8.82307 -30.72128,16.0516c-14.88228,7.12223 -36.14268,17.11462 -47.30439,22.42972c-11.05541,5.2088 -25.19357,11.90582 -31.35909,14.77598c-11.90582,5.63401 -16.68941,9.77978 -20.30368,17.75243c-1.59453,3.61427 -2.01974,7.12223 -2.01974,20.09108c0,17.22092 0.85042,20.62259 7.12223,26.4692c6.90963,6.59072 -4.67729,6.16552 173.05964,6.16552c177.31172,0 165.2996,0.42521 173.05964,-6.27182c5.95291,-5.3151 7.44114,-11.26801 6.90963,-28.06373c-0.53151,-15.839 -2.44495,-22.21712 -8.71676,-28.27633c-2.33864,-2.23234 -18.39024,-10.31129 -49.11152,-24.55576c-78.34457,-36.67419 -76.85634,-35.71747 -80.57691,-44.85944c-2.33864,-5.4214 -2.12604,-15.20119 0.31891,-20.72889c1.16932,-2.44495 5.3151,-8.61046 9.35458,-13.81926c8.82307,-11.26801 13.18145,-17.96504 16.68941,-26.04399c5.84661,-13.18145 6.16552,-16.0516 6.69703,-51.34386c0.53151,-30.61497 0.31891,-33.69773 -1.70083,-42.20189c-5.3151,-22.42972 -20.62259,-42.30819 -39.96955,-51.87537c-13.07515,-6.59072 -29.87086,-9.35458 -43.58382,-7.44114z"/>
   <path id="svg_3" d="m329.00991,184.17466c-4.78359,3.18906 -7.76005,9.24827 -6.90963,14.03186c0.85042,4.46468 4.78359,9.35458 8.82307,11.05541c2.23234,0.85042 19.34696,1.16932 62.29297,0.95672l59.42281,-0.31891l3.61427,-3.93317c2.97646,-3.40166 3.61427,-4.78359 3.61427,-8.92937c0,-6.16552 -2.97646,-11.26801 -7.86635,-13.60666c-3.18906,-1.48823 -10.5239,-1.70083 -61.54885,-1.70083l-57.82828,0l-3.61427,2.44495z"/>
   <path id="svg_4" d="m363.02655,243.27857c-3.61427,3.50797 -4.14578,4.78359 -4.14578,8.71676c0,5.95291 1.70083,9.24827 6.27182,12.33103c3.61427,2.44495 3.72057,2.44495 44.11533,2.44495c38.26872,0 40.71366,-0.1063 43.90272,-2.12604c4.35838,-2.55125 6.69703,-7.12223 6.69703,-12.86254c0,-3.72057 -0.63781,-5.1025 -4.14578,-8.50416l-4.14578,-4.14578l-42.20189,0l-42.20189,0l-4.14578,4.14578z"/>
   <path id="svg_5" d="m404.90953,297.17368c-7.22854,3.61427 -9.88609,13.39405 -5.63401,20.40998c3.61427,5.84661 7.01593,6.59072 29.23305,6.59072c22.21712,0 25.61878,-0.74411 29.23305,-6.59072c4.67729,-7.65374 1.91344,-17.32722 -5.95291,-20.62259c-5.4214,-2.23234 -42.20189,-2.01974 -46.87918,0.2126z"/>
  </g>
 </g>
</svg>