<svg width="500" height="500" xmlns="http://www.w3.org/2000/svg" preserveAspectRatio="xMidYMid meet" version="1.0">
 <metadata/>

 <g>
  <title>Layer 1</title>
  <g id="svg_6">
   <path id="svg_2" d="m208.81226,76.52899c-16.10723,3.053 -28.63507,9.26429 -39.79433,19.68661c-9.89594,9.15901 -15.7914,18.4233 -20.21299,31.26697l-3.57938,10.21177l0,33.7936c0,32.95139 0.10528,34.2147 2.6319,44.21592c3.68466,13.89643 10.31705,27.26648 20.00244,39.89961c10.9487,14.31754 12.10674,16.73888 12.10674,25.58207c0,6.52711 -0.4211,7.8957 -3.36883,12.42257c-3.68466,5.47435 -5.36908,6.52711 -29.79311,18.0022c-83.27332,39.16267 -91.48485,43.37371 -96.43282,48.63751c-8.42208,8.94846 -9.68539,12.94895 -10.21177,30.95115c-0.4211,14.84392 -0.21055,17.15999 3.053,29.372l1.05276,4.00049l176.65313,0l176.65313,0l2.31607,-7.15877c1.78969,-5.2638 2.42135,-10.31705 2.73718,-19.68661c0.52638,-14.63336 -0.63166,-22.21324 -4.42159,-29.16145c-5.79018,-10.63288 -9.15901,-12.84367 -43.05789,-28.9509c-17.37054,-8.21153 -39.26795,-18.63385 -48.84807,-23.16072c-31.05642,-14.63336 -36.00439,-17.37054 -39.4785,-21.68686c-2.84245,-3.68466 -3.15828,-4.94797 -3.57938,-12.94895c-0.4211,-10.42232 -0.31583,-10.5276 12.00146,-26.21372c9.15901,-11.68564 16.84416,-26.52955 20.73937,-40.00488c2.31607,-8.00098 2.42135,-10.1065 2.42135,-42.1104c0,-32.00391 -0.10528,-34.10943 -2.42135,-42.1104c-4.00049,-13.5806 -8.94846,-22.00268 -19.68661,-32.74084c-7.26404,-7.26404 -11.47508,-10.5276 -17.89692,-13.89643c-15.89668,-8.10625 -34.2147,-11.15926 -49.585,-8.21153zm21.79213,26.95066c19.58134,3.57938 36.32022,20.52882 40.00488,40.53126c1.68442,9.26429 0.63166,58.21763 -1.47386,65.58695c-3.26356,11.36981 -11.05398,24.21348 -22.73962,37.58353c-8.52736,9.68539 -10.00122,14.84392 -10.1065,33.68832c0,15.58085 0,15.89668 3.26356,22.63434c1.89497,3.78994 5.57963,9.36956 8.42208,12.52784c5.05325,5.6849 12.52784,9.68539 49.37445,26.95066c19.89716,9.26429 42.21568,19.79189 57.58597,27.16121c18.94968,9.05374 19.79189,10.00122 19.79189,21.26575l0,6.84294l-153.70297,0l-153.70297,0l0,-5.79018c0,-6.42184 1.78969,-11.68564 4.8427,-14.31754c1.15804,-0.94748 8.63263,-4.8427 16.73888,-8.63263c27.89814,-12.94895 74.21958,-35.05691 89.37933,-42.42623c20.6341,-10.21177 29.05618,-23.6871 29.05618,-46.11089c0,-17.37054 -2.6319,-24.1082 -15.05447,-39.26795c-4.21104,-5.2638 -9.68539,-13.26478 -12.00146,-17.79164c-7.15877,-13.68588 -7.57987,-16.94944 -7.68515,-51.69052c-0.10528,-27.89814 0.10528,-31.05642 2.00024,-35.89912c3.15828,-8.42208 6.73766,-14.00171 12.94895,-19.89716c12.00146,-11.26453 27.26648,-15.89668 43.05789,-12.94895z"/>
   <path id="svg_3" d="m325.24752,194.54339l0,13.1595l67.37664,0l67.37664,0l0,-13.1595l0,-13.1595l-67.37664,0l-67.37664,0l0,13.1595z"/>
   <path id="svg_4" d="m363.35743,250.55022l0.31583,13.47533l48.21641,0.31583l48.11113,0.21055l0,-13.68588l0,-13.68588l-48.42696,0l-48.53224,0l0.31583,13.37005z"/>
   <path id="svg_5" d="m399.99348,306.66233l0,13.68588l30.00366,0l30.00366,0l0,-13.68588l0,-13.68588l-30.00366,0l-30.00366,0l0,13.68588z"/>
  </g>
 </g>
</svg>