<?xml version="1.0" standalone="no"?><!DOCTYPE svg PUBLIC "-//W3C//DTD SVG 1.1//EN" "http://www.w3.org/Graphics/SVG/1.1/DTD/svg11.dtd"><svg t="1766559210328" class="icon" viewBox="0 0 1024 1024" version="1.1" xmlns="http://www.w3.org/2000/svg" p-id="87748" width="200" height="200" xmlns:xlink="http://www.w3.org/1999/xlink"><path d="M469.333333 128a85.333333 85.333333 0 0 1 85.12 78.933333L554.666667 213.333333v256a85.333333 85.333333 0 0 1-78.933334 85.12L469.333333 554.666667H213.333333a85.333333 85.333333 0 0 1-85.12-78.933334L128 469.333333V213.333333a85.333333 85.333333 0 0 1 78.933333-85.12L213.333333 128h256z m0 85.333333H213.333333v256h256V213.333333zM362.666667 298.666667a21.333333 21.333333 0 0 1 20.992 17.493333L384 320v42.666667a21.333333 21.333333 0 0 1-17.493333 20.992L362.666667 384h-42.666667a21.333333 21.333333 0 0 1-20.992-17.493333L298.666667 362.666667v-42.666667a21.333333 21.333333 0 0 1 17.493333-20.992L320 298.666667h42.666667zM896 213.333333a85.333333 85.333333 0 0 0-85.333333-85.333333h-85.333334a85.333333 85.333333 0 0 0-85.333333 85.333333v85.333334a85.333333 85.333333 0 0 0 85.333333 85.333333h85.333334a85.333333 85.333333 0 0 0 85.333333-85.333333V213.333333z m-170.666667 0h85.333334v85.333334h-85.333334V213.333333zM298.666667 640a85.333333 85.333333 0 0 1 85.333333 85.333333v85.333334a85.333333 85.333333 0 0 1-85.333333 85.333333H213.333333a85.333333 85.333333 0 0 1-85.333333-85.333333v-85.333334a85.333333 85.333333 0 0 1 85.333333-85.333333h85.333334z m0 85.333333H213.333333v85.333334h85.333334v-85.333334z m597.333333 0a85.333333 85.333333 0 0 0-85.333333-85.333333h-85.333334a85.333333 85.333333 0 0 0-85.333333 85.333333v85.333334a85.333333 85.333333 0 0 0 85.333333 85.333333h85.333334a85.333333 85.333333 0 0 0 85.333333-85.333333v-85.333334z m-170.666667 0h85.333334v85.333334h-85.333334v-85.333334z m-85.333333-213.333333a42.666667 42.666667 0 0 1 42.666667-42.666667h170.666666a42.666667 42.666667 0 0 1 0 85.333334h-170.666666a42.666667 42.666667 0 0 1-42.666667-42.666667z m-85.333333 170.666667a42.666667 42.666667 0 0 0-85.333334 0v170.666666a42.666667 42.666667 0 0 0 85.333334 0v-170.666666z" fill="#5f5e80" p-id="87749"></path></svg>