<svg width="500" height="500" xmlns="http://www.w3.org/2000/svg" preserveAspectRatio="xMidYMid meet" version="1.0">
 <metadata/>

 <g>
  <title>Layer 1</title>
  <g id="svg_4">
   <path id="svg_2" d="m220.76196,41.98737c-67.45341,10.10506 -126.27002,51.8208 -157.53524,111.58746c-16.75539,31.86979 -24.09667,63.99869 -23.14662,100.44599c0.86368,32.81984 6.90944,57.78019 20.81469,86.368c13.38704,27.37866 33.42442,52.85722 56.1392,71.2536c15.20077,12.26426 39.38381,26.60134 56.22557,33.25168c15.45987,6.13213 35.49725,11.31421 52.25264,13.47341c9.06864,1.20915 38.26102,1.55462 45.77504,0.51821c27.46502,-3.71382 45.94778,-8.98227 66.9352,-19.08733c23.14662,-11.14147 39.64291,-22.62842 57.17562,-39.64291c34.2881,-33.33805 55.70736,-74.44922 63.04864,-121.08794c2.07283,-13.30067 2.07283,-47.41603 0,-59.42119c-3.62746,-20.72832 -9.15501,-39.47018 -16.15082,-55.10279c-17.10086,-38.00192 -46.12051,-70.9945 -82.0496,-93.27744c-21.76474,-13.47341 -50.61165,-24.35578 -76.86752,-28.93328c-13.2143,-2.24557 -48.27971,-2.50467 -62.6168,-0.34547zm53.54816,25.47856c22.62842,3.62746 38.52013,8.46406 56.31194,17.18723c37.39734,18.39638 66.24426,46.72509 84.72701,83.17239c6.65034,13.12794 8.8959,19.08733 12.60973,32.47437c5.18208,18.82822 6.13213,26.94682 6.04576,49.83434c-0.08637,21.592 -0.86368,28.3287 -5.18208,44.91136c-6.13213,23.66483 -19.51917,50.43891 -34.2881,68.66256c-5.52755,6.82307 -19.4328,20.81469 -26.94682,27.11955c-36.62003,30.66064 -84.12243,46.12051 -130.41568,42.49306c-79.97677,-6.39123 -146.5665,-62.27133 -166.34477,-139.39796c-3.62746,-14.33709 -4.40477,-20.72832 -4.83661,-40.33386c-0.60458,-26.1695 0.77731,-36.10182 8.3777,-60.4576c3.88656,-12.43699 13.81888,-33.07894 21.16016,-44.04768c26.34224,-39.1247 66.41699,-67.02157 111.84656,-77.90394c16.58266,-3.88656 26.1695,-4.92298 45.3432,-4.5775c10.01869,0.17274 19.6919,0.60458 21.592,0.86368z"/>
   <path id="svg_3" d="m336.92692,142.86519c-7.34128,3.62746 -38.95197,19.34643 -70.13082,34.89267l-56.83015,28.3287l-3.36835,7.08218c-1.81373,3.97293 -5.35482,11.40058 -7.85949,16.66902c-3.97293,8.29133 -38.34739,81.53139 -46.20688,98.45952c-1.55462,3.28198 -5.18208,10.96874 -8.03222,17.0145c-2.93651,6.13213 -4.92298,11.0551 -4.49114,11.0551c0.51821,0 32.21526,-15.71898 70.56266,-34.97904l69.78535,-34.89267l4.75024,-9.32774c2.59104,-5.09571 6.65034,-13.38704 8.98227,-18.39638c9.32774,-20.03738 24.52851,-52.33901 40.24749,-85.50432c19.26006,-40.7657 17.61907,-37.13824 16.75539,-37.05187c-0.43184,0 -6.82307,3.02288 -14.16435,6.65034zm-42.23395,52.68448c-0.95005,1.81373 -2.85014,5.78666 -4.23203,8.8959c-14.25072,31.09248 -28.24234,60.1985 -29.36512,61.40765c-2.50467,2.50467 -66.9352,34.63357 -65.98515,32.90621c0.43184,-0.86368 2.1592,-4.49114 3.88656,-8.03222c7.68675,-16.32355 20.29648,-42.9249 25.47856,-53.80727l5.70029,-12.00515l32.47437,-16.23718c17.79181,-8.98227 32.6471,-16.32355 33.07894,-16.32355c0.34547,-0.08637 -0.08637,1.38189 -1.03642,3.19562z"/>
  </g>
 </g>
</svg>