<?xml version="1.0" standalone="no"?><!DOCTYPE svg PUBLIC "-//W3C//DTD SVG 1.1//EN" "http://www.w3.org/Graphics/SVG/1.1/DTD/svg11.dtd"><svg t="1766461172567" class="icon" viewBox="0 0 1024 1024" version="1.1" xmlns="http://www.w3.org/2000/svg" p-id="5306" xmlns:xlink="http://www.w3.org/1999/xlink" width="200" height="200"><path d="M512 128c28 0 55.2 3.2 81.6 8.8V174.4c0 18.4-15.2 33.6-33.6 33.6H401.6v144h-152v96l-64-64-25.6-25.6C219.2 223.2 355.2 128 512 128m81.6 448v192h112c14.4 0 25.6 8.8 30.4 21.6l8.8 28c-60 45.6-134.4 74.4-214.4 77.6V737.6h-64c-17.6 0-32-14.4-32-32V632L416 613.6 377.6 576h216M512 64C264.8 64 64 264.8 64 512s200.8 448 448 448 448-200.8 448-448S759.2 64 512 64zM313.6 512V416h103.2c27.2 0 48.8-21.6 48.8-48.8V272H560c53.6 0 97.6-44 97.6-97.6v-18.4c140.8 56.8 240 194.4 240 356 0 100-37.6 190.4-100.8 259.2-12-39.2-48-67.2-91.2-67.2h-48V560.8c0-27.2-21.6-48.8-48.8-48.8H313.6z m152 383.2c-189.6-23.2-336-184.8-336-380.8 0-29.6 4-58.4 10.4-85.6l229.6 229.6v48c0 52.8 43.2 96 96 96v92.8z" p-id="5307" fill="#000000"></path></svg>