<svg width="500" height="500" xmlns="http://www.w3.org/2000/svg" preserveAspectRatio="xMidYMid meet" version="1.0">
 <metadata/>

 <g>
  <title>Layer 1</title>
  <path fill="#07c160" id="svg_2" d="m222.19824,41.27506c-39.22506,5.84604 -73.73557,20.9326 -104.28586,45.54256c-8.29761,6.69466 -24.32708,22.81842 -31.11603,31.30461c-21.68693,27.06152 -37.52782,62.42065 -43.46816,97.02545c-1.79153,9.99485 -2.0744,15.46373 -2.0744,34.98196c-0.09429,25.93003 1.22578,36.01917 7.3547,57.23464c14.14365,49.12562 44.22248,90.42508 86.18198,118.5238c24.32708,16.21805 52.52009,27.34439 81.8446,32.34182c14.33223,2.35728 53.08584,2.35728 66.85233,0c31.30461,-5.46888 60.06337,-17.34955 85.80482,-35.45342c48.37129,-33.94476 80.05307,-86.74773 88.25638,-147.18827c1.60295,-11.22063 1.60295,-41.39375 0,-51.3886c-5.75175,-37.90499 -17.16096,-67.51236 -36.39633,-94.66817c-20.9326,-29.60738 -47.99412,-52.70867 -80.7131,-68.83244c-20.17828,-9.99485 -39.8851,-15.93518 -64.40076,-19.42395c-11.88067,-1.69724 -42.14808,-1.69724 -53.84017,0zm114.65787,109.37757c1.50866,0.84862 3.67735,2.82873 4.62026,4.52597c3.48877,5.65746 2.73444,8.48619 -8.01474,29.13592c-5.37459,10.56059 -18.66962,36.30204 -29.51309,57.23464c-10.84347,20.9326 -20.9326,39.69651 -22.53555,41.58233c-3.01731,3.58306 -11.5035,8.29761 -51.20002,28.57018c-10.65488,5.37459 -29.89025,15.27514 -42.80812,21.87551c-19.23537,9.90056 -24.23279,12.06925 -27.53297,12.06925c-6.88324,0 -11.97496,-4.90313 -11.97496,-11.5035c0,-2.73444 2.54586,-8.3919 10.93776,-24.23279c5.94033,-11.31492 19.61253,-37.62211 30.26741,-58.36613c10.74918,-20.74402 20.46115,-38.65931 21.59264,-39.69651c1.13149,-1.13149 8.01474,-5.09171 15.27514,-8.86335c7.26041,-3.77164 16.59522,-8.67477 20.74402,-10.84347c4.1488,-2.16869 15.65231,-8.10903 25.45857,-13.20074c18.29246,-9.4291 37.90499,-19.61253 50.25711,-26.02432c7.63757,-4.05451 10.18343,-4.43168 14.42652,-2.26298z"/>
 </g>
</svg>