<?xml version="1.0" standalone="no"?><!DOCTYPE svg PUBLIC "-//W3C//DTD SVG 1.1//EN" "http://www.w3.org/Graphics/SVG/1.1/DTD/svg11.dtd"><svg t="1766558065176" class="icon" viewBox="0 0 1279 1024" version="1.1" xmlns="http://www.w3.org/2000/svg" p-id="72999" width="249.8046875" height="200" xmlns:xlink="http://www.w3.org/1999/xlink"><path d="M182.419 212.101c0 37.43 30.344 67.774 67.774 67.774s67.774-30.344 67.774-67.774-30.345-67.774-67.774-67.774-67.774 30.344-67.774 67.774z m0 0M182.881 352.424h394.32v78.864h-394.32v-78.864z m0 158.652h314.994v78.864H182.881v-78.864z m0 157.112h314.994v78.864H182.881v-78.864z m0 0" p-id="73000" fill="#1d82f8"></path><path d="M613.707 943.596H179.8c-39.432 0-71.47-32.039-71.47-71.47V150.488c0-39.432 32.038-71.47 71.47-71.47h511.23c39.432 0 71.47 32.038 71.47 71.47v447.614a237.673 237.673 0 0 1 53.758-6.16c8.471 0 16.943 0.461 25.107 1.386v-442.84C841.365 67.619 773.899 0.154 691.03 0.154H179.8C96.932 0.154 29.466 67.62 29.466 150.489v721.79c0 82.869 67.466 150.335 150.334 150.335h509.228c-30.96-20.178-56.684-47.134-75.321-79.018z m0 0" p-id="73001" fill="#1d82f8"></path><path d="M817.49 626.291c-108.592 0-196.698 88.106-196.698 196.698 0 70.238 37.43 135.24 98.272 170.359 60.842 35.119 135.856 35.119 196.698 0s98.272-100.12 98.272-170.359c0.154-108.592-87.952-196.698-196.544-196.698z m-33.27 317.92l-100.121-100.12 43.437-43.59 55.297 55.143L906.52 724.717l44.67 42.359-166.97 177.136z" p-id="73002" fill="#1d82f8"></path></svg>