<?xml version="1.0" standalone="no"?><!DOCTYPE svg PUBLIC "-//W3C//DTD SVG 1.1//EN" "http://www.w3.org/Graphics/SVG/1.1/DTD/svg11.dtd"><svg t="1766576772777" class="icon" viewBox="0 0 1024 1024" version="1.1" xmlns="http://www.w3.org/2000/svg" p-id="7237" xmlns:xlink="http://www.w3.org/1999/xlink" width="200" height="200"><path d="M879.206 271.77c-6.349-12.083-21.3-16.589-33.178-10.24L134.554 637.133c-12.083 6.349-16.589 21.3-10.24 33.178 4.3 8.396 12.902 13.107 21.709 13.107 3.891 0 7.782-0.82 11.469-2.867l711.475-375.808c12.083-6.144 16.588-21.095 10.24-32.973z m-122.47 382.566v-224.87c0-13.517-11.06-24.576-24.576-24.576s-24.576 11.06-24.576 24.576v226.509c0 9.42 3.072 19.046 8.806 26.624l97.69 130.253c4.915 6.758 2.662 13.107 1.434 15.565s-5.12 8.192-13.312 8.192H214.835c-8.397 0-12.083-5.735-13.312-8.192a14.234 14.234 0 0 1 1.434-15.565l101.58-135.578c8.193-10.854 5.94-26.214-4.915-34.406-10.854-8.192-26.214-5.94-34.406 4.915L163.635 783.36c-14.746 19.456-16.998 45.26-6.144 67.174a63.652 63.652 0 0 0 57.344 35.43h191.898a103.588 103.588 0 0 0 101.786 84.788c50.79 0 92.774-36.66 101.786-84.787h191.898c24.371 0 46.49-13.517 57.344-35.43 10.854-21.914 8.602-47.514-6.144-67.175l-96.666-129.024zM508.518 921.6c-23.347 0-43.213-14.95-50.995-35.635h101.786a54.231 54.231 0 0 1-50.791 35.635zM284.877 528.998c13.517 0 24.576-11.06 24.576-24.576v-95.437c0-109.773 89.293-199.066 199.066-199.066a197.632 197.632 0 0 1 169.165 94.208c7.168 11.469 22.323 15.155 33.792 7.987 11.469-7.168 15.155-22.323 7.987-33.792-36.864-59.187-95.232-98.918-161.792-112.23 0-2.867-0.205-5.734-0.819-8.396a48.078 48.078 0 0 0-2.867-9.216c-1.024-2.868-2.663-5.735-4.301-8.397-1.843-2.867-3.891-5.12-6.144-7.578-18.432-18.432-51.405-18.432-69.837 0-2.457 2.458-4.505 4.71-6.349 7.578-1.843 2.662-3.072 5.53-4.505 8.397-1.229 3.072-2.253 6.144-2.663 9.216-0.41 2.662-0.819 5.324-0.819 7.987-113.254 22.937-198.86 123.29-198.86 243.302v95.437c-0.206 13.721 10.854 24.576 24.37 24.576z" p-id="7238" fill="#b4b4b4"></path></svg>