<svg width="500" height="500" xmlns="http://www.w3.org/2000/svg" preserveAspectRatio="xMidYMid meet" version="1.0">
 <metadata/>

 <g>
  <title>Layer 1</title>
  <path  fill="#07c160" id="svg_2" d="m224.72939,60.49118c-68.57864,7.8568 -124.13744,39.284 -157.24824,88.89408c-17.3972,26.26416 -25.70296,50.73248 -27.27432,80.58832c-2.46928,49.9468 18.74408,97.42432 59.59944,133.22888l6.62216,5.83648l-2.46928,29.51912c-2.35704,26.9376 -2.46928,29.96808 -0.89792,33.672c2.13256,4.93856 7.2956,7.96904 13.80552,7.96904c3.70392,0 9.5404,-2.58152 30.3048,-13.4688c14.14224,-7.40784 28.28448,-14.92792 31.53944,-16.61152l5.83648,-2.91824l12.68312,2.806c102.47512,23.0092 207.19504,-20.42768 246.928,-102.58736c11.224,-23.23368 15.82584,-42.98792 15.82584,-69.0276c0.22448,-44.11032 -14.92792,-80.70056 -46.80408,-113.69912c-32.77408,-33.78424 -73.5172,-54.32416 -124.13744,-62.62992c-12.57088,-2.02032 -51.6304,-3.03048 -64.31352,-1.57136z"/>
 </g>
</svg>