<svg width="503" height="500" xmlns="http://www.w3.org/2000/svg" preserveAspectRatio="xMidYMid meet" version="1.0">
 <metadata/>

 <g>
  <title>Layer 1</title>
  <path id="svg_2" d="m220.2648,55.51276c-18.122,2.7625 -27.5145,4.9725 -42.5425,9.945c-60.2225,20.0005 -105.417,60.8855 -126.3015,114.257c-6.7405,17.3485 -9.945,35.6915 -9.945,56.9075c0.221,44.421 16.9065,82.3225 51.3825,117.0195c10.9395,11.05 15.1385,15.912 14.586,17.1275c-0.3315,0.9945 -0.884,18.343 -1.2155,38.5645l-0.663,36.7965l6.5195,-2.873c3.536,-1.6575 7.514,-3.315 8.84,-3.8675c1.2155,-0.5525 7.956,-3.536 14.9175,-6.63c29.0615,-13.26 39.4485,-18.0115 45.747,-20.995l6.63,-3.094l11.6025,2.652c65.637,15.028 136.136,0.9945 188.4025,-37.6805c4.641,-3.4255 13.481,-11.05 19.5585,-16.9065c37.57,-36.023 55.5815,-78.897 53.5925,-127.517c-0.663,-17.5695 -2.431,-26.962 -8.0665,-43.758c-22.8735,-69.0625 -91.6045,-120.666 -173.927,-130.611c-13.039,-1.547 -47.1835,-1.2155 -59.1175,0.663zm62.985,31.9345c21.879,3.536 37.791,8.619 57.46,18.343c17.68,8.84 31.7135,18.8955 46.5205,33.592c29.9455,29.835 43.758,63.5375 42.1005,103.0965c-0.7735,18.6745 -4.199,31.9345 -12.9285,49.3935c-20.774,41.8795 -61.217,73.593 -110.5,86.632c-15.3595,4.0885 -24.4205,5.525 -40.3325,6.7405c-22.6525,1.547 -52.819,-1.989 -74.8085,-8.84l-6.63,-2.0995l-15.691,7.6245c-22.1,10.608 -30.719,14.4755 -31.2715,13.923c-0.3315,-0.3315 2.431,-18.2325 5.967,-37.791c0.442,-2.9835 0,-3.6465 -4.3095,-6.5195c-2.5415,-1.6575 -9.061,-6.7405 -14.2545,-11.271c-25.0835,-21.3265 -42.5425,-49.6145 -48.62,-78.3445c-4.3095,-20.8845 -2.21,-50.167 4.9725,-69.2835c21.879,-58.123 81.2175,-99.7815 152.048,-106.8535c12.376,-1.2155 37.791,-0.442 50.2775,1.6575z"/>
 </g>
</svg>