<svg width="500" height="500" xmlns="http://www.w3.org/2000/svg" preserveAspectRatio="xMidYMid meet" version="1.0">
 <metadata/>

 <g>
  <title>Layer 1</title>
  <path id="svg_2" d="m234.86883,52.47373c-14.44442,2.73783 -30.6826,11.23455 -42.20038,22.09147c-28.60563,27.00069 -39.84018,72.41094 -29.92734,121.03106c5.19244,25.39575 16.33258,48.24249 35.49741,72.97739c9.72402,12.46186 11.61218,19.35364 7.64705,27.85036c-3.5875,7.64705 -10.29047,13.31153 -21.52503,18.31515c-5.47566,2.45461 -17.55989,8.02468 -26.90628,12.36745c-9.34639,4.34277 -30.39938,14.25561 -46.73196,21.90266c-44.93821,21.05299 -45.78788,21.52503 -52.96289,28.79444c-7.36382,7.45823 -12.27304,15.48291 -15.57732,25.30135c-2.07698,6.04211 -2.3602,8.49672 -2.07698,15.67173c0.18882,7.26942 0.75526,9.53521 3.30428,14.91646c3.77632,8.02468 9.25198,13.59475 14.06679,14.35002c4.62599,0.66086 377.82084,0.66086 383.86295,0c5.8533,-0.66086 11.14014,-5.66448 15.19969,-14.35002c5.38126,-11.32896 4.43718,-25.9622 -2.64342,-39.84018c-3.30428,-6.51415 -12.17863,-17.37107 -17.18226,-21.05299c-5.9477,-4.34277 -9.34639,-5.9477 -67.78495,-33.13721c-27.47273,-12.83949 -53.43493,-24.92371 -57.68329,-26.90628c-9.53521,-4.53158 -13.78357,-8.2135 -17.08785,-15.01087c-5.09803,-10.47929 -3.4931,-16.14377 9.15758,-32.28754c9.34639,-11.89541 14.53883,-19.92009 20.20331,-31.62668c11.23455,-22.75233 15.67173,-41.16189 16.14377,-67.02968c0.18882,-9.34639 -0.09441,-20.48654 -0.56645,-24.82931c-5.09803,-43.05005 -31.72109,-77.60338 -68.06817,-88.08267c-8.77994,-2.54902 -26.71747,-3.20987 -36.15827,-1.41612zm27.28391,29.36089c24.64049,6.41974 43.23887,30.30497 47.86486,61.3652c1.51053,10.29047 1.2273,32.85399 -0.56645,43.14446c-3.96514,22.75233 -11.32896,37.85761 -31.06023,64.00863c-4.53158,5.9477 -9.25198,13.0283 -10.5737,15.67173c-10.10166,20.58095 -4.90922,44.56058 13.40594,61.64843c6.70297,6.32534 10.00725,8.11909 40.50103,22.28029c92.51985,42.95564 96.57939,44.93821 100.92216,49.18657c3.87073,3.77632 7.55264,10.85692 8.59113,16.61581l0.66086,3.5875l-181.92423,0l-182.01863,0l0.66086,-3.87073c0.75526,-4.53158 3.5875,-10.85692 6.51415,-14.06679c3.77632,-4.24836 8.49672,-7.0806 21.90266,-13.40594c7.26942,-3.4931 17.6543,-8.40231 23.12996,-10.95133c5.47566,-2.64342 19.07042,-8.96876 30.21056,-14.1612c21.14739,-9.81843 30.77701,-14.35002 46.92078,-21.90266c11.23455,-5.28685 16.33258,-8.68554 22.75233,-14.91646c11.14014,-10.85692 18.03193,-27.18951 16.71022,-39.84018c-1.32171,-14.06679 -4.15395,-20.10891 -17.74871,-38.42406c-5.47566,-7.45823 -12.08422,-17.18226 -14.63324,-21.71384c-19.25923,-33.89247 -21.61943,-81.47411 -5.57007,-112.15671c5.19244,-9.81843 18.31515,-23.50759 26.52865,-27.37832c12.27304,-5.9477 25.58457,-7.64705 36.81912,-4.7204z"/>
 </g>
</svg>