<svg width="500" height="500" xmlns="http://www.w3.org/2000/svg" preserveAspectRatio="xMidYMid meet" version="1.0">
 <metadata/>

 <g>
  <title>Layer 1</title>
  <path fill="#07c160" id="svg_2" d="m237.1348,52.7539c-36.04146,5.10824 -65.65033,33.29815 -76.24519,72.65051c-2.45952,8.98672 -2.55412,10.02728 -2.55412,36.70364c-0.0946,30.55483 0.47299,34.8117 6.62179,53.35271c5.77042,17.50045 12.48681,29.23048 28.00072,49.66343c8.22994,10.68946 10.21648,14.56794 10.87866,20.90594c0.75678,7.18937 -1.70275,13.90576 -7.18937,19.39239c-3.78388,3.78388 -13.81116,9.08131 -72.9343,38.78477c-75.9614,38.028 -75.67761,37.8388 -80.97504,49.47424c-2.64872,5.58122 -2.74331,6.4326 -2.74331,19.58158c0,12.5814 0.18919,14.09495 2.27033,18.35182c2.74331,5.67582 8.04075,11.06785 13.52737,14.00036l4.06767,2.17573l190.13999,0l190.13999,0l3.87848,-2.08113c6.338,-3.40549 9.74349,-6.81098 12.95979,-12.95979c3.0271,-5.67582 3.0271,-5.95961 3.0271,-19.014c0,-16.27069 -1.60815,-21.18973 -9.5543,-29.79806c-5.10824,-5.39203 -6.2434,-6.05421 -73.69107,-39.73074c-42.37946,-21.18973 -70.00179,-35.47388 -72.46131,-37.64961c-8.13534,-7.00018 -10.78406,-19.20319 -6.14881,-29.04128c1.13516,-2.64872 4.82445,-8.04075 8.13534,-12.20301c17.21666,-21.66272 26.10878,-39.25776 31.87919,-63.00161c2.17573,-8.98672 2.45952,-12.20301 2.83791,-35.00089c0.37839,-20.43295 0.18919,-26.77095 -1.04057,-34.05492c-4.72985,-27.24394 -18.63561,-50.13642 -39.91994,-65.46113c-6.81098,-5.01364 -19.39239,-10.78406 -28.28451,-13.14898c-8.41913,-2.17573 -25.91958,-3.1217 -34.62251,-1.89194z"/>
 </g>
</svg>