<?xml version="1.0" standalone="no"?><!DOCTYPE svg PUBLIC "-//W3C//DTD SVG 1.1//EN" "http://www.w3.org/Graphics/SVG/1.1/DTD/svg11.dtd"><svg t="1766540959892" class="icon" viewBox="0 0 1024 1024" version="1.1" xmlns="http://www.w3.org/2000/svg" p-id="31135" xmlns:xlink="http://www.w3.org/1999/xlink" width="200" height="200"><path d="M107.594 725.21a19.995 19.995 0 0 1-18.025-11.334 467.688 467.688 0 0 1-18.882-357.961 20 20 0 0 1 18.83-13.262h360.634a20 20 0 0 1 14.142 34.142L121.736 719.353a20.005 20.005 0 0 1-14.142 5.857z m-3.741-342.557a428.628 428.628 0 0 0 10.256 287.757l287.758-287.757z" fill="#FFC817" p-id="31136"></path><path d="M573.849 382.653H89.518a20 20 0 0 1-18.864-26.647A468.71 468.71 0 0 1 310.208 89.597a20 20 0 0 1 22.77 3.901l255.013 255.013a20 20 0 0 1-14.142 34.142z m-455.035-40h406.75L314.877 131.965a431.568 431.568 0 0 0-196.063 210.688z" fill="#FF7612" p-id="31137"></path><path d="M661.396 470.198a19.998 19.998 0 0 1-14.146-5.859L304.694 121.782a20 20 0 0 1 5.475-32.166 467.678 467.678 0 0 1 357.962-18.883 20 20 0 0 1 13.262 18.83v360.634a20.002 20.002 0 0 1-19.997 20z m-307.76-356.044l287.757 287.76V103.898a428.624 428.624 0 0 0-287.758 10.255z" fill="#FA5452" p-id="31138"></path><path d="M661.389 593.896a20.004 20.004 0 0 1-19.996-20.001V89.563A20 20 0 0 1 668.04 70.7a468.72 468.72 0 0 1 266.41 239.552 20 20 0 0 1-3.902 22.771L675.534 588.037a19.998 19.998 0 0 1-14.145 5.859z m20.004-475.036v406.75L892.08 314.922A431.586 431.586 0 0 0 681.393 118.86z" fill="#6467F0" p-id="31139"></path><path d="M934.482 681.438H573.85a20 20 0 0 1-14.143-34.142l342.558-342.557a20 20 0 0 1 32.167 5.476 467.684 467.684 0 0 1 18.882 357.962 20 20 0 0 1-18.83 13.261z m-312.35-40h298.015a428.63 428.63 0 0 0-10.255-287.757z" fill="#5283F0" p-id="31140"></path><path d="M705.169 936.452a19.998 19.998 0 0 1-14.148-5.858L436.009 675.58a20 20 0 0 1 14.142-34.142h484.331a20 20 0 0 1 18.864 26.648 468.717 468.717 0 0 1-239.554 266.408 19.966 19.966 0 0 1-8.623 1.958zM498.436 681.438l210.686 210.688a431.565 431.565 0 0 0 196.064-210.688z" fill="#00B1FE" p-id="31141"></path><path d="M362.606 954.527a19.977 19.977 0 0 1-6.646-1.136A468.723 468.723 0 0 1 89.551 713.84a20.001 20.001 0 0 1 3.9-22.773l255.014-255.012a20 20 0 0 1 34.142 14.142v484.33a20 20 0 0 1-20.001 20zM131.919 709.17A431.58 431.58 0 0 0 342.607 905.23V498.481z" fill="#9AD122" p-id="31142"></path><path d="M512 980.223a462.083 462.083 0 0 1-156.13-26.865 20 20 0 0 1-13.263-18.83V573.894a20 20 0 0 1 34.143-14.143l342.556 342.557a20 20 0 0 1-5.476 32.167A461.991 461.991 0 0 1 512 980.223zM382.607 920.19a428.619 428.619 0 0 0 287.757-10.254L382.607 622.179z" fill="#66D020" p-id="31143"></path></svg>