<svg width="250" height="250" xmlns="http://www.w3.org/2000/svg" style="vector-effect: non-scaling-stroke;" stroke="null" preserveAspectRatio="xMidYMid meet" version="1.0">
 <metadata style="vector-effect: non-scaling-stroke;" stroke="null"/>

 <g stroke="null">
  <title stroke="null">Layer 1</title>
  <g stroke="null" id="svg_1" fill="#000000" transform="translate(27.0735 900.624) scale(0.106213 -0.106213)">
   <path stroke="null" id="svg_2" d="m711.13906,8406.05179c-256.12464,-32.50597 -465.17167,-136.18881 -630.50377,-312.16942c-71.73732,-76.78135 -118.81493,-143.47464 -162.52986,-230.90449c-166.45299,-333.46644 -137.30971,-723.5381 77.3418,-1025.61946c57.16567,-80.70448 170.37613,-192.23359 247.71792,-243.79479c114.8918,-76.2209 225.86046,-123.29851 364.29107,-155.24404c62.77015,-14.01119 76.2209,-15.13209 198.95897,-15.13209c117.69404,-0.56045 138.43061,1.1209 193.35449,12.32985c153.00225,33.06642 311.04853,104.80374 414.73137,188.87091l22.41791,17.93433l62.20971,-59.40747c34.18732,-32.50597 135.62837,-130.02389 225.30001,-215.7724c89.67165,-86.30896 169.25523,-160.28807 175.98061,-164.2112c17.37388,-9.52761 51.00075,-8.96716 73.97911,0.56045c44.83582,18.49478 66.13284,80.14403 43.71493,124.41941c-6.16493,11.7694 -33.62687,43.15448 -60.52836,68.93508c-27.46194,26.34105 -86.30896,82.94627 -131.14478,126.10075c-44.83582,43.71493 -119.93583,116.01269 -167.01344,161.40896c-46.51717,45.39627 -85.18806,84.06717 -85.18806,86.30896c0,1.68134 10.64851,17.37388 24.09926,34.74776c93.59478,122.17762 158.60673,266.77315 189.9918,421.45674c17.37388,86.30896 18.49478,273.49852 2.24179,361.48883c-29.14329,158.60673 -86.30896,291.43285 -179.90374,417.53361c-150.20001,201.20076 -354.76345,331.78509 -602.48138,383.90674c-58.28657,12.32985 -87.9903,15.13209 -173.73882,16.81343c-57.16567,1.1209 -112.65001,0.56045 -123.29851,-0.56045zm274.61942,-200.64031c160.28807,-37.55 279.103,-102.56195 392.8739,-215.7724c203.44255,-202.8821 281.90524,-479.74331 216.8933,-765.57169c-75.66045,-334.58733 -375.50002,-591.83287 -719.61497,-618.73436c-244.35524,-19.05522 -464.05077,62.20971 -638.91048,237.06942c-152.4418,151.88135 -227.5418,321.69703 -235.94852,533.5463c-7.84627,202.32165 45.39627,376.62092 161.40896,529.62317c128.34254,168.69479 312.16942,276.30076 531.86496,311.04853c74.53956,11.7694 217.45374,6.16493 291.43285,-11.20896z"/>
  </g>
 </g>
</svg>