<?xml version="1.0" standalone="no"?><!DOCTYPE svg PUBLIC "-//W3C//DTD SVG 1.1//EN" "http://www.w3.org/Graphics/SVG/1.1/DTD/svg11.dtd"><svg t="1766557837436" class="icon" viewBox="0 0 1024 1024" version="1.1" xmlns="http://www.w3.org/2000/svg" p-id="57003" xmlns:xlink="http://www.w3.org/1999/xlink" width="200" height="200"><path d="M512.301 115.215c-273.845 0-496.64 179.456-496.64 400.038 0 121.043 66.364 233.622 182.363 309.925-1.145 11.52-8.283 36.051-12.816 51.562-14.637 50.206-25.208 86.483 2.32 99.147 3.915 1.807 8.237 2.74 12.845 2.74h0.015c20.028 0 43.956-17.392 84.555-48.142 17.754-13.463 46.908-35.524 57.826-39.048 54.242 15.842 111.27 23.868 169.532 23.868 273.86-0.015 496.64-179.47 496.64-400.052 0-220.582-222.78-400.038-496.64-400.038z m0 756.54c-55.07 0-108.905-7.71-159.985-22.904-2.846-0.843-5.888-1.28-9.02-1.28-20.043 0-44.002 17.408-84.646 48.203-11.79 8.93-28.611 21.655-41.773 30.238 2.831-12.017 7.063-26.594 10.12-37.09 14.35-49.197 23.823-81.679 0.918-96.256C120.696 724.465 59.196 623.36 59.196 515.253c0-196.563 203.264-356.488 453.105-356.488 167.108 0 313.284 71.59 391.83 177.8-81.377 38.52-457.05 215.416-486.143 212.163-32.663-3.614-118.83-79.811-118.83-79.811s-31.758-15.42-30.84 13.598c0 0 90.7 212.269 106.135 214.091 15.42 1.792 14.516 12.68 80.715-29.937 57.976-37.33 395.972-232.373 479.413-280.47 19.817 40.041 30.855 83.546 30.855 129.054-0.03 196.578-203.294 356.502-453.135 356.502z" fill="#01c464" p-id="57004"></path></svg>