<?xml version="1.0" standalone="no"?><!DOCTYPE svg PUBLIC "-//W3C//DTD SVG 1.1//EN" "http://www.w3.org/Graphics/SVG/1.1/DTD/svg11.dtd"><svg t="1766558130698" class="icon" viewBox="0 0 1024 1024" version="1.1" xmlns="http://www.w3.org/2000/svg" p-id="75065" width="200" height="200" xmlns:xlink="http://www.w3.org/1999/xlink"><path d="M988.98 418.048q-0.052 57.446-41.985 101.53-39.014 41.113-98.56 53.555-20.736 4.403-43.161 4.403-29.39 0-56.832-7.782-56.474-15.924-88.73-52.736-15.667 15.308-35.942 27.392-50.381 30.105-111.77 30.105-61.389 0-111.77-30.105-20.121-12.032-35.737-27.136-32.256 36.966-89.344 52.992-27.648 7.68-56.474 7.68-21.606 0-43.059-4.352-59.7-12.596-98.765-53.71Q34.97 475.75 34.97 418.356q0-30.157 12.492-58.01l0.461-0.921 89.293-200.243 1.075-2.304q20.429-43.827 60.877-70.554 42.65-28.262 94.003-28.262h437.76q51.251 0 93.901 28.211 40.96 27.136 61.235 71.68 1.024 2.048 1.946 4.3l88.576 197.735q12.39 27.853 12.441 57.959v0.102z m-98.868 47.462q20.326-21.401 20.326-47.462v-0.102q0-13.312-5.632-25.908l-88.832-198.45-0.41-0.922-0.716-1.536q-24.371-54.528-83.968-54.528H293.12q-59.7 0-84.122 54.579l-0.921 1.997-88.781 198.912-0.512 1.024q-5.325 12.236-5.325 25.241 0 26.061 20.327 47.463 22.22 23.398 57.548 30.822 13.62 2.816 27.341 2.816 18.125 0 35.328-4.813 52.429-14.694 66.458-56.064l0.307-0.921q0.87-2.407 1.536-5.376 4.966-22.426 26.88-29.133 15.565-4.71 29.9 2.918 14.337 7.68 19.098 23.194l1.127 2.765 0.358 0.921q11.776 26.675 40.807 44.032 31.795 19.047 71.526 19.047t71.526-18.996q29.287-17.51 40.91-44.441l2.047-5.427q7.22-19.968 27.955-24.884 15.821-3.737 29.645 4.864 13.824 8.55 17.562 24.372 1.024 4.403 1.843 6.707 14.336 41.318 66.355 55.961 16.999 4.813 35.43 4.813 14.183 0 27.085-2.713 35.584-7.424 57.754-30.772z m-21.248 208.384v7.732q0 2.048-0.205 3.532-0.051 1.127-0.256 2.1v0.256q-5.99 56.883-36.505 107.776-29.543 49.356-78.183 86.732-48.742 37.479-109.926 57.805-63.232 20.992-131.84 20.992t-131.891-20.992q-61.184-20.326-109.876-57.805-48.69-37.376-78.233-86.732-30.464-50.893-36.506-107.776v-0.564q-0.153-0.819-0.153-1.843-0.205-1.433-0.205-3.481 0-17.716 12.493-30.208 12.544-12.544 30.208-12.544 16.332 0 28.467 10.803 11.98 10.752 13.977 26.624l0.103 0.973v0.05l0.102 0.513v0.41q4.25 40.396 26.88 76.697 22.17 35.533 59.034 62.669 37.222 27.34 84.07 42.24 48.64 15.462 101.53 15.462 52.838 0 101.478-15.462 46.9-14.9 84.122-42.24 36.864-27.136 59.033-62.669 22.63-36.352 26.778-76.749l0.051-0.512 0.154-1.382q1.997-15.872 13.977-26.624 12.135-10.752 28.416-10.752 17.716 0 30.208 12.493 9.728 9.676 11.93 22.476h0.768z" p-id="75066" fill="#e96757"></path></svg>